<mxfile host="app.diagrams.net" modified="2024-06-26T09:42:19.245Z" agent="Mozilla/5.0 (Windows NT 10.0; Win64; x64) AppleWebKit/537.36 (KHTML, like Gecko) Chrome/126.0.0.0 Safari/537.36" version="24.6.3" etag="lhTXv030B1iBpUeiVjba" type="device">
  <diagram name="Page-1" id="1423565191376">
    <mxGraphModel dx="1050" dy="617" grid="1" gridSize="10" guides="1" tooltips="1" connect="1" arrows="1" fold="1" page="1" pageScale="1" pageWidth="700" pageHeight="400" math="0" shadow="0">
      <root>
        <mxCell id="0" />
        <mxCell id="1" parent="0" />
        <mxCell id="1423565193040" value="" style="whiteSpace=wrap;rounded=0;dashed=0;shape=mxgraph.rack.general.1u_rack_server;align=left;points=[[0,0.5,0,0,0],[0.2,1,0,0,0],[1,0.5,0,0,0]];" parent="1" vertex="1">
          <mxGeometry width="130" height="15" as="geometry" />
        </mxCell>
        <mxCell id="1423565233872" value="" style="whiteSpace=wrap;rounded=0;dashed=0;shape=mxgraph.rack.general.1u_rack_server;align=left;points=[[0.2, 1, 0, 0, 0], [0.4, 1, 0, 0, 0], [0.6, 1, 0, 0, 0], [0.8, 1, 0, 0, 0]];" parent="1" vertex="1">
          <mxGeometry x="260" y="70" width="130" height="15" as="geometry" />
        </mxCell>
        <mxCell id="1423565226064" value="mLOM 1/1" style="edgeStyle=orthogonalEdgeStyle;orthogonalLoop=1;rounded=0;jettySize=auto;" parent="1" source="1423565193040" target="1423565233872" edge="1">
          <mxGeometry x="-0.5" relative="1" as="geometry" />
        </mxCell>
      </root>
    </mxGraphModel>
  </diagram>
</mxfile>
